<?xml version="1.0" standalone="no"?>
<svg xmlns:xlink="http://www.w3.org/1999/xlink" id="wave" style="transform:rotate(180deg); transition: 0.3s" viewBox="0 0 1440 490" version="1.1" xmlns="http://www.w3.org/2000/svg"><defs><linearGradient id="sw-gradient-0" x1="0" x2="0" y1="1" y2="0"><stop stop-color="rgba(246.766, 166.138, 140.243, 1)" offset="0%"/><stop stop-color="rgba(255, 204.85, 11, 1)" offset="100%"/></linearGradient></defs><path style="transform:translate(0, 0px); opacity:1" fill="url(#sw-gradient-0)" d="M0,147L48,122.5C96,98,192,49,288,24.5C384,0,480,0,576,8.2C672,16,768,33,864,106.2C960,180,1056,310,1152,375.7C1248,441,1344,441,1440,392C1536,343,1632,245,1728,171.5C1824,98,1920,49,2016,57.2C2112,65,2208,131,2304,196C2400,261,2496,327,2592,367.5C2688,408,2784,425,2880,416.5C2976,408,3072,376,3168,302.2C3264,229,3360,114,3456,57.2C3552,0,3648,0,3744,24.5C3840,49,3936,98,4032,155.2C4128,212,4224,278,4320,310.3C4416,343,4512,343,4608,302.2C4704,261,4800,180,4896,130.7C4992,82,5088,65,5184,57.2C5280,49,5376,49,5472,57.2C5568,65,5664,82,5760,89.8C5856,98,5952,98,6048,130.7C6144,163,6240,229,6336,261.3C6432,294,6528,294,6624,302.2C6720,310,6816,327,6864,334.8L6912,343L6912,490L6864,490C6816,490,6720,490,6624,490C6528,490,6432,490,6336,490C6240,490,6144,490,6048,490C5952,490,5856,490,5760,490C5664,490,5568,490,5472,490C5376,490,5280,490,5184,490C5088,490,4992,490,4896,490C4800,490,4704,490,4608,490C4512,490,4416,490,4320,490C4224,490,4128,490,4032,490C3936,490,3840,490,3744,490C3648,490,3552,490,3456,490C3360,490,3264,490,3168,490C3072,490,2976,490,2880,490C2784,490,2688,490,2592,490C2496,490,2400,490,2304,490C2208,490,2112,490,2016,490C1920,490,1824,490,1728,490C1632,490,1536,490,1440,490C1344,490,1248,490,1152,490C1056,490,960,490,864,490C768,490,672,490,576,490C480,490,384,490,288,490C192,490,96,490,48,490L0,490Z"/></svg>